<svg width="71" height="24" viewBox="0 0 71 24" fill="none" xmlns="http://www.w3.org/2000/svg">
<path d="M67.2056 19.2966C67.7369 19.0144 68.1437 18.7321 68.426 18.4498C68.7249 18.1676 68.8992 17.8023 68.949 17.354C68.3845 17.2544 67.9113 17.0136 67.5294 16.6317C67.1475 16.2498 66.9566 15.8015 66.9566 15.2868C66.9566 14.7389 67.1475 14.274 67.5294 13.8921C67.9113 13.4936 68.3845 13.2943 68.949 13.2943C69.4803 13.2943 69.9369 13.4853 70.3188 13.8672C70.7173 14.2325 70.9415 14.7057 70.9913 15.2868C71.0577 16.7147 70.7588 17.7774 70.0947 18.4747C69.7626 18.84 69.4222 19.1389 69.0735 19.3713C68.7415 19.6038 68.426 19.7698 68.1271 19.8695L68.152 19.8445C67.8199 19.9608 67.5709 20.0189 67.4048 20.0189C67.355 20.0189 67.2886 20.0023 67.2056 19.9691C67.1392 19.9359 67.0811 19.9027 67.0313 19.8695C66.8818 19.637 66.9399 19.4461 67.2056 19.2966ZM70.9415 4.35321C70.9415 4.91774 70.7422 5.39925 70.3437 5.79774C69.9452 6.17962 69.472 6.37057 68.9241 6.37057C68.3596 6.37057 67.8864 6.17962 67.5045 5.79774C67.1226 5.39925 66.9316 4.91774 66.9316 4.35321C66.9316 3.78868 67.1226 3.31547 67.5045 2.93358C67.8864 2.53509 68.3596 2.33585 68.9241 2.33585C69.472 2.33585 69.9452 2.53509 70.3437 2.93358C70.7422 3.31547 70.9415 3.78868 70.9415 4.35321Z" fill="#FF4000"/>
<path d="M37.0635 10.4802C37.5948 11.0946 37.4785 11.6923 36.7148 12.2734C35.951 12.8546 35.3118 12.838 34.797 12.2236L28.471 4.72701L22.1449 12.2236C21.6302 12.838 20.991 12.8546 20.2272 12.2734C19.48 11.6923 19.3638 11.0946 19.8785 10.4802L27.0265 2.01229C27.425 1.54739 27.9065 1.43946 28.471 1.68852C29.0189 1.43946 29.5004 1.54739 29.9155 2.01229L37.0635 10.4802ZM29.9653 18.6493C29.9653 19.0312 29.8491 19.3799 29.6167 19.6953C29.4008 19.9942 28.994 20.1436 28.3963 20.1436H20.0031C19.3721 20.1436 19.0566 19.7285 19.0566 18.8983C19.0732 18.0516 19.3887 17.6282 20.0031 17.6282H26.7774C26.8936 17.6282 26.96 17.6033 26.9766 17.5534C26.9933 17.5036 27.0016 17.4455 27.0016 17.3791V11.5761C27.0016 10.7791 27.4914 10.3806 28.471 10.3806C29.4672 10.3806 29.9653 10.7791 29.9653 11.5761V18.6493Z" fill="#FF4000"/>
<path d="M18.0068 10.3789C18.5381 10.9932 18.4219 11.591 17.6581 12.1721C16.8944 12.7532 16.2551 12.7366 15.7404 12.1223L9.41435 4.62566L3.08831 12.1223C2.57359 12.7366 1.93434 12.7532 1.17057 12.1721C0.423397 11.591 0.30717 10.9932 0.821888 10.3789L7.96982 1.91094C8.36831 1.44604 8.84982 1.33811 9.41435 1.58717C9.96228 1.33811 10.4438 1.44604 10.8589 1.91094L18.0068 10.3789ZM10.9087 18.5479C10.9087 18.9298 10.7925 19.2785 10.56 19.594C10.3442 19.8929 9.93737 20.0423 9.33963 20.0423H0.946416C0.315472 20.0423 0 19.6272 0 18.797C0.0166038 17.9502 0.332076 17.5268 0.946416 17.5268H7.72076C7.83699 17.5268 7.90341 17.5019 7.92001 17.4521C7.93661 17.4023 7.94491 17.3442 7.94491 17.2778V11.4747C7.94491 10.6777 8.43473 10.2793 9.41435 10.2793C10.4106 10.2793 10.9087 10.6777 10.9087 11.4747V18.5479Z" fill="#FF4000"/>
<rect x="31.9248" y="17.1152" width="5.44812" height="2.72406" rx="1.36203" fill="#FF4000"/>
<mask id="mask0_722_75491" style="mask-type:alpha" maskUnits="userSpaceOnUse" x="40" y="11" width="19" height="13">
<path d="M58.7437 20.3117L50.611 12.0223L49.3638 11.5209L40.152 17.9092L40.2361 21.6147L43.9817 23.2951L49.492 17.1675L55.9806 23.0226L58.7437 20.3117Z" fill="#D9D9D9"/>
</mask>
<g mask="url(#mask0_722_75491)">
<path d="M44.9124 20.5345C44.399 21.0679 43.6923 21.3256 43.0129 20.8048C42.3476 20.2836 42.6709 19.4571 43.2127 18.923L47.8553 14.0601C48.0079 13.8972 48.4439 13.4715 48.6401 13.2754C48.6401 13.2754 48.9749 12.883 49.2843 12.7422C49.5355 12.628 50.1139 12.5837 50.3972 12.7253C51.1275 13.0904 51.0372 14.1155 51.4926 14.551C51.9481 14.9866 56.0954 18.7687 56.0954 18.7687C57.1525 19.8457 57.7002 20.7586 56.6047 21.3063C55.5093 21.854 54.6848 20.6513 54.1334 20.1421L49.621 15.6297L44.9124 20.5345ZM54.5932 12.6847C54.609 13.38 54.191 13.7374 53.3392 13.7567C52.5015 13.7758 52.0748 13.4376 52.059 12.7422L51.8389 3.05064C51.8231 2.35528 52.234 1.99809 53.0717 1.97907C53.9235 1.95972 54.3574 2.29773 54.3731 2.99309L54.5932 12.6847ZM48.4346 7.95451C48.4695 9.4901 47.9812 10.8202 46.9698 11.9447C45.9726 13.0689 44.7357 13.6478 43.2592 13.6813C41.7543 13.7155 40.4713 13.2011 39.4102 12.1381C38.363 11.0603 37.8218 9.74641 37.7866 8.19633C37.7514 6.64626 38.2325 5.31636 39.2301 4.20664C40.2415 3.08212 41.4996 2.50277 43.0046 2.46859C44.4811 2.43506 45.743 2.95718 46.7902 4.03495C47.8513 5.09792 48.3994 6.40444 48.4346 7.95451ZM45.943 8.0111C45.9216 7.06946 45.6265 6.27174 45.0576 5.61793C44.503 4.96379 43.8353 4.64559 43.0544 4.66332C42.2735 4.68106 41.6138 5.02941 41.0753 5.70837C40.5509 6.38701 40.2994 7.19714 40.3208 8.13878C40.3422 9.08041 40.6302 9.8783 41.1848 10.5324C41.7537 11.1862 42.4285 11.5043 43.2094 11.4866C43.9902 11.4688 44.6428 11.1206 45.1672 10.442C45.7058 9.76303 45.9644 8.95273 45.943 8.0111Z" fill="#FF4000"/>
</g>
<mask id="mask1_722_75491" style="mask-type:alpha" maskUnits="userSpaceOnUse" x="38" y="-1" width="20" height="16">
<path d="M53.7792 13.6693L51.5511 11.4413L50.6942 9.55594L48.9804 11.7839L45.2099 14.012L42.2963 13.6693L39.2114 11.4413L38.0117 7.6707V3.38607C38.9258 2.47206 40.8224 0.644044 41.0967 0.644044C41.3709 0.644044 44.7529 0.872469 46.4096 0.986682L50.6942 4.75716C50.8085 3.72889 51.1398 1.46669 51.5511 0.644044C51.9625 -0.178605 55.036 -0.0414972 56.5213 0.129888L57.2069 12.9838L56.0072 14.3549L53.7792 13.6693Z" fill="#D9D9D9"/>
</mask>
<g mask="url(#mask1_722_75491)">
<path d="M45.7882 20.3713C45.2471 20.8978 44.6329 20.8905 43.9455 20.3494C43.2727 19.8083 43.2216 19.2745 43.7919 18.748L49.9563 12.5836C50.1172 12.4227 50.3 12.313 50.5047 12.2545C50.7095 12.196 50.9142 12.1668 51.119 12.1668C51.3237 12.1668 51.5285 12.196 51.7332 12.2545C51.9526 12.313 52.1427 12.4227 52.3036 12.5836L58.468 18.748C59.0237 19.2891 58.9652 19.8229 58.2925 20.3494C57.6344 20.8905 57.0274 20.8978 56.4717 20.3713L51.1409 14.8651L45.7882 20.3713ZM56.4059 12.1668C56.4059 12.8688 55.9671 13.2198 55.0896 13.2198C54.2268 13.2198 53.7953 12.8688 53.7953 12.1668V2.38273C53.7953 1.68074 54.2268 1.32974 55.0896 1.32974C55.9671 1.32974 56.4059 1.68074 56.4059 2.38273V12.1668ZM50.1757 7.25282C50.1757 8.80305 49.6419 10.1339 48.5743 11.2454C47.5213 12.3569 46.2343 12.9126 44.7133 12.9126C43.1631 12.9126 41.8541 12.3642 40.7865 11.2673C39.7335 10.1559 39.207 8.81768 39.207 7.25282C39.207 5.68795 39.7335 4.35709 40.7865 3.26023C41.8541 2.14874 43.1631 1.59299 44.7133 1.59299C46.2343 1.59299 47.5213 2.14874 48.5743 3.26023C49.6419 4.35709 50.1757 5.68795 50.1757 7.25282ZM47.609 7.25282C47.609 6.3022 47.3238 5.49052 46.7535 4.81777C46.1977 4.14503 45.5177 3.80866 44.7133 3.80866C43.9089 3.80866 43.2216 4.14503 42.6512 4.81777C42.0954 5.49052 41.8176 6.3022 41.8176 7.25282C41.8176 8.20343 42.0954 9.01511 42.6512 9.68786C43.2216 10.3606 43.9089 10.697 44.7133 10.697C45.5177 10.697 46.1977 10.3606 46.7535 9.68786C47.3238 9.01511 47.609 8.20343 47.609 7.25282Z" fill="#FF4000"/>
</g>
</svg>
